<?xml version="1.0" encoding="utf-8"?>
<!-- Generator: Adobe Illustrator 19.0.0, SVG Export Plug-In . SVG Version: 6.00 Build 0)  -->
<svg version="1.1" id="Layer_1" xmlns="http://www.w3.org/2000/svg" xmlns:xlink="http://www.w3.org/1999/xlink" x="0px" y="0px"
	 viewBox="0 0 172 175" style="enable-background:new 0 0 172 175;" xml:space="preserve">
<style type="text/css">
	.st0{fill-rule:evenodd;clip-rule:evenodd;fill:#1EA361;}
	.st1{fill-rule:evenodd;clip-rule:evenodd;fill:#FEDB43;}
	.st2{fill-rule:evenodd;clip-rule:evenodd;fill:#5384C4;}
	.st3{fill-rule:evenodd;clip-rule:evenodd;fill:#FFFFFF;}
	.st4{fill-rule:evenodd;clip-rule:evenodd;fill:#C2C2C1;}
	.st5{fill:#EFEFEF;}
	.st6{fill:#DC4B3E;}
	.st7{fill:#802C27;}
</style>
<g>
	<path class="st0" d="M1.1,158.3V35.4c0-7.1,5.8-12.9,12.9-12.9H137L1.1,158.3z"/>
	<path class="st1" d="M1.1,160.9v-2.6L137,22.5h2.6c7.1,0,12.9,5.8,12.9,12.9V38L16.7,173.8h-2.6C6.9,173.8,1.1,168,1.1,160.9z"/>
	<polygon class="st2" points="16.7,173.8 76.8,113.7 137,173.8 	"/>
	<path class="st3" d="M137,173.8l-61.1-61.1l15.5-15.5l61.1,61.1v2.6c0,7.1-5.8,12.9-12.9,12.9H137z"/>
	<polygon class="st4" points="152.5,158.3 92.3,98.1 152.5,38 	"/>
	<path class="st5" d="M28.1,39.2c7.7-3.5,17.3-2.1,23.6,3.7c-2,2-4,3.9-6,5.9c-6.3-6.2-18-3.3-20.9,4.9c-3.8,8.1,2.5,18.7,11.6,18.8
		c5.9,0.7,11.8-3.3,13-9.1c-4.1,0-8.2,0-12.3,0c-0.1-2.5-0.1-5.1-0.1-7.6c6.9,0.2,13.9-0.4,20.7,0.3c0.5,5,0.2,10.4-2.5,14.8
		c-4.2,7.9-14.3,11.4-22.7,9.4c-10.5-2.2-18.3-12.9-16.9-23.6C16.2,49.1,21.3,42.3,28.1,39.2z"/>
	<g>
		<g>
			<g>
				<path class="st6" d="M126.1,1.2h4.9c12.3,0.7,24.3,6.7,31.7,16.5c4.9,6.2,7.6,14,8.2,21.8v2.9c-0.3,15.2-10,27.7-18.5,39.5
					c-9.5,13.4-18.2,27.9-20.6,44.4c-0.6,2.8,0.1,6.7-3.2,8c-0.8-0.6-1.7-1.1-2.2-2c-1-9.2-3.3-18.3-7.2-26.7
					c-4.5-9.8-10.7-18.7-17-27.3c-3.8-5.2-7.5-10.6-10.5-16.3c-4.7-8.6-6.5-18.8-4.5-28.4c1.6-7.6,5.6-14.7,11.1-20.1
					C105.6,6.2,115.7,1.8,126.1,1.2z M125.1,28c-5.8,1.3-10.7,6.4-11.2,12.5c-0.6,5.6,2.7,11.3,7.7,13.8c5.4,2.9,12.6,2,17.2-2.2
					c4.2-3.8,5.8-10.2,3.6-15.5C139.7,30,131.9,26.2,125.1,28z"/>
			</g>
		</g>
		<g>
			<path class="st7" d="M125.1,28c6.8-1.7,14.6,2,17.2,8.6c2.2,5.3,0.7,11.7-3.6,15.5c-4.6,4.2-11.7,5-17.2,2.2
				c-5-2.5-8.3-8.2-7.7-13.8C114.4,34.4,119.3,29.3,125.1,28z"/>
		</g>
	</g>
</g>
</svg>
